 <svg  version="1.0" xmlns="http://www.w3.org/2000/svg"  width="693.000000pt" height="654.000000pt" viewBox="0 0 693.000000 654.000000"  preserveAspectRatio="xMidYMid meet">  <g transform="translate(0.000000,654.000000) scale(0.100000,-0.100000)" fill="#220202" stroke="none"> <path d="M4627 6188 c-14 -24 -36 -54 -49 -67 -12 -14 -34 -39 -48 -57 -59 -75 -164 -203 -215 -263 -17 -20 -46 -56 -65 -81 -18 -25 -39 -49 -45 -55 -6 -5 -29 -33 -50 -61 -63 -81 -169 -211 -230 -283 -17 -20 -46 -56 -65 -81 -18 -25 -38 -49 -45 -55 -6 -5 -32 -38 -58 -72 -26 -34 -53 -68 -60 -75 -7 -7 -37 -44 -67 -83 -30 -38 -71 -87 -90 -108 -19 -21 -39 -46 -44 -54 -9 -17 -40 -55 -67 -84 -9 -9 -40 -48 -69 -85 -29 -38 -55 -71 -59 -74 -3 -3 -51 -61 -106 -130 -108 -135 -124 -155 -170 -209 -17 -20 -46 -56 -65 -81 -18 -25 -38 -49 -44 -55 -6 -5 -56 -66 -111 -135 -108 -135 -124 -155 -170 -209 -17 -20 -46 -56 -65 -81 -18 -25 -38 -49 -45 -55 -6 -5 -32 -38 -58 -72 -26 -34 -53 -68 -60 -75 -7 -7 -30 -35 -52 -63 -58 -72 -76 -94 -110 -134 -17 -20 -46 -56 -65 -81 -18 -25 -38 -49 -45 -55 -6 -5 -32 -38 -58 -72 -26 -34 -53 -68 -60 -75 -6 -7 -30 -36 -52 -63 -49 -62 -71 -88 -110 -134 -17 -20 -46 -56 -65 -81 -18 -25 -38 -49 -45 -55 -6 -5 -33 -39 -59 -75 -27 -36 -54 -69 -60 -75 -6 -5 -36 -41 -66 -80 -30 -38 -57 -72 -60 -75 -4 -3 -37 -43 -75 -90 -37 -47 -71 -87 -74 -90 -4 -3 -29 -34 -56 -70 -26 -36 -53 -69 -59 -75 -6 -5 -56 -66 -111 -135 -108 -135 -124 -155 -170 -209 -17 -20 -46 -56 -65 -81 -18 -25 -38 -49 -44 -55 -6 -5 -56 -66 -111 -135 -106 -132 -122 -152 -170 -209 -17 -20 -48 -58 -70 -86 -22 -27 -42 -52 -45 -55 -3 -3 -27 -33 -53 -67 -26 -34 -53 -68 -60 -75 -6 -7 -30 -36 -52 -63 -66 -83 -79 -97 -112 -132 -18 -19 -33 -38 -33 -43 0 -6 1210 -10 3295 -10 2068 0 3295 4 3295 10 0 9 -9 34 -36 97 -8 17 -14 38 -14 46 0 9 -4 18 -9 22 -5 3 -13 20 -17 37 -3 18 -10 39 -15 48 -11 20 -39 98 -46 130 -3 14 -9 30 -13 35 -5 6 -18 39 -30 75 -12 36 -28 79 -36 97 -8 17 -14 35 -14 41 0 5 -7 23 -15 38 -8 16 -15 37 -15 46 0 9 -4 19 -9 23 -5 3 -12 19 -16 36 -4 17 -13 42 -21 57 -8 15 -14 36 -14 47 0 11 -7 29 -15 39 -8 11 -15 30 -15 42 0 13 -4 25 -9 28 -4 3 -18 36 -30 73 -13 37 -29 82 -37 100 -8 17 -14 37 -14 45 0 8 -4 18 -9 23 -5 6 -14 26 -19 45 -6 19 -20 60 -32 90 -11 30 -30 82 -41 115 -11 33 -27 72 -35 87 -8 14 -14 35 -14 46 0 12 -4 23 -9 27 -5 3 -12 19 -16 36 -4 17 -13 42 -21 57 -8 15 -14 35 -14 44 0 9 -4 19 -9 23 -5 3 -13 20 -17 38 -6 30 -11 43 -48 129 -9 20 -16 44 -16 55 0 10 -7 27 -15 37 -8 11 -15 29 -15 40 0 12 -7 30 -15 40 -8 11 -15 30 -15 42 0 13 -4 25 -9 29 -5 3 -12 19 -16 36 -4 17 -13 42 -21 57 -8 15 -14 34 -14 43 0 8 -4 19 -9 25 -5 5 -14 25 -19 44 -6 19 -20 60 -32 90 -12 30 -24 66 -27 80 -3 14 -12 34 -19 45 -8 11 -14 29 -14 42 0 12 -4 24 -9 28 -5 3 -12 19 -16 36 -4 17 -13 42 -21 57 -8 15 -14 32 -14 38 0 7 -7 25 -15 40 -8 16 -15 36 -15 45 0 8 -4 19 -9 25 -5 5 -14 25 -19 44 -6 19 -20 60 -32 90 -12 30 -24 64 -27 75 -3 11 -11 34 -19 52 -8 17 -14 38 -14 46 0 9 -4 18 -9 22 -5 3 -12 19 -16 36 -4 17 -13 42 -21 57 -8 15 -14 32 -14 38 0 7 -7 25 -15 40 -8 16 -15 36 -15 45 0 8 -4 19 -9 25 -5 5 -14 25 -19 44 -6 19 -20 60 -32 90 -12 30 -24 64 -27 75 -3 11 -11 34 -19 52 -8 17 -14 38 -14 46 0 9 -4 18 -9 22 -5 3 -12 19 -16 36 -4 17 -13 42 -21 57 -8 15 -14 34 -14 42 0 9 -4 20 -9 25 -5 6 -14 26 -19 45 -6 19 -20 60 -32 90 -40 104 -51 135 -57 155 -3 11 -11 34 -19 52 -8 17 -14 35 -14 41 0 5 -7 23 -15 38 -8 16 -15 37 -15 46 0 9 -4 19 -9 23 -5 3 -13 20 -17 37 -3 18 -10 39 -15 48 -11 20 -39 98 -46 130 -3 14 -9 30 -13 35 -5 6 -18 39 -30 75 -12 36 -28 79 -36 97 -8 17 -14 38 -14 46 0 9 -4 18 -9 22 -5 3 -12 19 -16 36 -4 17 -13 42 -21 57 -8 15 -14 35 -14 44 0 9 -4 19 -9 23 -5 3 -13 20 -17 38 -3 17 -12 45 -19 62 -7 16 -21 50 -30 75 -10 25 -23 59 -30 75 -24 58 -37 100 -44 140 -9 59 -40 60 -74 3z m13 -269 c-10 -175 -30 -3077 -30 -4401 l0 -798 -2122 0 c-1168 0 -2140 -3 -2161 -6 -32 -6 -37 -4 -37 12 0 11 12 33 28 50 15 17 45 52 67 80 60 74 79 96 95 113 8 9 36 44 63 78 26 34 53 68 60 75 7 7 37 45 67 83 30 39 57 72 60 75 3 3 24 27 45 55 60 74 78 97 95 114 8 9 36 44 63 78 26 34 53 68 60 75 7 7 57 69 112 138 114 142 134 167 155 189 8 9 37 45 64 81 27 36 54 70 60 75 7 6 33 38 59 72 26 34 53 68 60 75 7 7 30 35 52 63 61 76 79 97 95 114 8 9 37 45 64 81 27 36 54 70 60 75 6 6 36 42 66 80 30 39 57 72 60 75 3 3 23 28 45 55 55 68 77 96 95 114 8 9 36 44 63 78 26 34 53 68 60 75 7 7 34 41 60 75 26 34 53 68 60 75 6 7 30 36 52 63 49 62 71 88 110 134 17 20 46 56 65 81 18 25 38 50 45 55 6 6 33 39 60 75 27 36 59 76 71 90 13 14 68 81 124 150 56 69 116 143 135 165 18 22 52 65 76 95 23 30 45 57 48 60 3 3 51 61 106 130 125 156 136 170 155 189 8 9 37 45 64 81 27 36 54 70 60 75 6 6 36 42 66 80 30 39 57 72 60 75 3 3 24 27 45 55 60 74 78 97 95 114 8 9 36 44 63 78 26 34 53 68 60 75 7 7 34 41 60 75 26 34 53 68 60 75 6 7 30 36 52 63 55 68 77 96 95 114 8 9 37 45 64 81 27 36 54 70 60 75 7 6 33 38 59 72 26 34 53 68 60 75 7 7 33 40 59 73 25 33 57 73 71 89 14 16 50 62 79 102 45 62 72 87 86 79 1 -1 -2 -76 -8 -166z m90 -1 c0 -13 4 -28 9 -33 5 -6 14 -26 19 -45 12 -41 32 -97 44 -125 4 -11 12 -33 17 -50 5 -16 19 -55 31 -85 12 -30 24 -64 27 -75 3 -11 11 -34 19 -52 8 -17 14 -35 14 -41 0 -5 7 -23 15 -38 8 -16 15 -37 15 -46 0 -9 4 -19 9 -23 5 -3 13 -20 17 -37 3 -18 10 -39 15 -48 11 -20 39 -98 46 -130 3 -14 9 -29 13 -35 5 -5 18 -39 30 -75 12 -36 28 -79 36 -97 8 -17 14 -35 14 -41 0 -5 7 -23 15 -38 8 -16 15 -37 15 -46 0 -9 4 -19 9 -23 5 -3 13 -20 17 -37 3 -18 10 -39 15 -48 11 -20 39 -98 46 -130 3 -14 9 -29 13 -35 5 -5 18 -39 30 -75 12 -36 28 -79 36 -97 8 -17 14 -37 14 -45 0 -8 4 -18 9 -24 5 -5 14 -25 19 -44 6 -19 20 -60 32 -90 12 -30 24 -66 27 -80 3 -14 12 -34 19 -45 8 -11 14 -29 14 -40 0 -11 7 -29 15 -39 8 -11 15 -30 15 -42 0 -13 4 -25 9 -29 5 -3 12 -19 16 -36 4 -17 13 -42 21 -57 8 -15 14 -34 14 -43 0 -8 4 -19 9 -25 5 -5 14 -25 19 -44 6 -19 20 -60 32 -90 11 -30 30 -82 41 -115 11 -33 27 -72 35 -87 8 -14 14 -35 14 -46 0 -12 4 -23 9 -27 5 -3 12 -19 16 -36 4 -17 13 -42 21 -57 8 -15 14 -34 14 -43 0 -8 4 -19 9 -25 5 -5 14 -25 19 -44 6 -19 20 -60 32 -90 11 -30 30 -82 41 -115 11 -33 27 -72 35 -87 8 -14 14 -33 14 -41 0 -8 7 -28 15 -43 8 -16 15 -36 15 -44 0 -8 7 -24 15 -34 8 -11 15 -29 15 -41 0 -12 4 -25 9 -30 5 -6 14 -26 19 -45 6 -19 20 -60 32 -90 12 -30 24 -66 27 -80 3 -14 12 -34 19 -45 8 -11 14 -29 14 -40 0 -11 7 -29 15 -39 8 -11 15 -30 15 -42 0 -13 4 -25 9 -29 5 -3 12 -19 16 -36 4 -17 13 -42 21 -57 8 -15 14 -34 14 -42 0 -9 4 -20 9 -25 5 -6 14 -26 19 -45 6 -19 20 -60 32 -90 12 -30 24 -64 27 -75 3 -11 11 -34 19 -52 8 -17 14 -35 14 -41 0 -5 7 -23 15 -38 8 -16 15 -37 15 -46 0 -9 4 -19 9 -23 5 -3 12 -19 16 -36 4 -17 13 -42 21 -57 8 -15 14 -34 14 -42 0 -9 4 -20 9 -25 5 -6 14 -26 19 -45 6 -19 20 -60 32 -90 12 -30 24 -64 27 -75 3 -11 11 -34 19 -52 8 -17 14 -38 14 -46 0 -9 4 -18 9 -22 5 -3 12 -19 16 -36 4 -17 13 -42 21 -57 8 -15 14 -35 14 -44 0 -9 4 -19 9 -23 5 -3 13 -20 17 -37 3 -18 12 -42 20 -53 18 -29 29 -95 15 -95 -6 0 -345 0 -753 0 l-743 0 -2 212 c-1 117 -2 219 -3 226 0 11 -44 13 -222 10 l-223 -3 3 490 c1 270 6 1050 10 1735 11 1859 9 2507 -7 2552 -7 21 -10 42 -6 48 9 15 55 -44 55 -72z m325 -5003 l0 -190 -185 -2 c-125 -2 -186 1 -191 8 -4 6 -6 91 -4 188 l2 176 174 5 c96 3 181 6 189 5 13 0 15 -28 15 -190z"/> <path d="M3292 3261 c-9 -6 -12 -45 -10 -152 3 -136 4 -144 23 -144 18 0 20 8 23 66 l3 66 62 -2 c83 -1 89 -7 81 -61 -7 -48 6 -74 37 -74 16 0 18 12 21 128 4 169 3 174 -30 170 -26 -3 -27 -6 -27 -58 l0 -55 -72 -3 -73 -3 0 54 c0 56 -15 82 -38 68z"/> <path d="M3826 3257 c-26 -19 -17 -52 14 -52 18 0 26 6 28 21 4 30 -20 47 -42 31z"/> <path d="M4159 3258 c-5 -10 -7 -266 -3 -280 7 -24 31 -23 39 3 4 11 6 41 5 67 -5 89 -4 92 34 92 49 0 59 -18 51 -93 -6 -51 -4 -65 9 -76 33 -28 46 -6 46 75 0 62 -4 82 -22 106 -20 28 -24 30 -69 25 l-48 -6 -3 42 c-2 30 -8 43 -20 45 -10 2 -19 2 -19 0z"/> <path d="M4397 3234 c-4 -4 -7 -16 -7 -27 0 -11 -7 -28 -16 -38 -14 -16 -14 -18 4 -28 17 -9 19 -18 15 -74 -6 -73 6 -104 42 -113 32 -8 60 13 44 32 -6 8 -18 14 -25 14 -10 0 -14 13 -14 43 0 23 -3 52 -6 64 -5 18 -1 25 22 33 l29 11 -22 17 c-12 9 -23 28 -25 42 -3 24 -27 38 -41 24z"/> <path d="M3608 3153 c-14 -16 -28 -39 -31 -53 -7 -26 11 -110 23 -110 4 0 17 -9 30 -20 31 -27 84 -26 110 2 11 12 19 27 17 33 -4 10 -12 10 -70 -2 -29 -6 -72 21 -61 38 3 5 34 9 70 9 61 0 65 2 75 26 8 23 5 33 -17 65 -25 36 -31 39 -73 39 -39 0 -52 -5 -73 -27z m103 -23 c10 -6 19 -20 19 -30 0 -18 -7 -20 -55 -20 -46 0 -55 3 -55 18 0 38 48 55 91 32z"/> <path d="M3933 3158 c-27 -30 -37 -78 -24 -123 18 -65 82 -95 123 -58 14 13 21 14 30 5 10 -10 7 -17 -10 -34 -21 -21 -39 -24 -112 -16 -19 2 -25 -2 -25 -15 0 -30 68 -49 118 -34 23 7 42 20 45 30 2 9 8 17 13 17 6 0 8 53 7 122 l-3 121 -71 4 c-63 3 -72 1 -91 -19z m108 -28 c27 -15 27 -92 -1 -120 -25 -25 -31 -25 -64 1 -20 16 -26 29 -26 59 0 60 40 87 91 60z"/> <path d="M3820 3070 c0 -81 3 -102 15 -107 9 -3 18 -4 20 -2 2 2 5 49 6 104 3 97 2 100 -19 103 -21 3 -22 1 -22 -98z"/> <path d="M3642 458 c-16 -16 -17 -274 -1 -283 6 -4 36 -9 67 -12 110 -9 165 52 123 134 -17 35 -18 42 -6 47 10 3 15 19 15 45 0 57 -36 81 -122 81 -36 0 -69 -5 -76 -12z m142 -51 c10 -7 17 -22 14 -33 -2 -14 -14 -20 -50 -24 -25 -3 -51 -4 -57 -2 -12 4 -15 54 -4 65 11 12 78 8 97 -6z m9 -126 c7 -7 8 -19 1 -38 -9 -26 -14 -28 -59 -28 -49 0 -50 0 -53 33 -5 48 10 61 59 52 22 -4 46 -13 52 -19z"/> <path d="M3917 383 c-4 -3 -7 -15 -7 -25 0 -17 5 -18 43 -13 35 6 46 3 61 -14 19 -21 19 -22 0 -35 -18 -14 -18 -15 0 -34 17 -20 17 -21 -2 -42 -28 -30 -82 -20 -82 14 0 24 28 56 48 56 16 0 15 19 -2 26 -18 7 -86 -34 -88 -54 -3 -36 2 -51 27 -78 22 -23 29 -26 62 -19 21 3 50 6 66 6 l27 -1 0 80 c0 67 -4 86 -22 110 -19 27 -28 30 -73 30 -29 0 -55 -3 -58 -7z"/> <path d="M4122 365 c-15 -17 -21 -33 -17 -45 8 -25 53 -57 85 -61 17 -3 26 -11 28 -27 5 -30 -24 -40 -60 -19 -56 32 -75 17 -36 -28 31 -36 88 -35 123 2 42 47 26 97 -35 110 -18 3 -41 14 -51 24 -18 18 -18 19 4 24 12 2 38 4 57 2 29 -2 35 1 35 18 0 17 -8 20 -55 23 -49 3 -58 0 -78 -23z"/> <path d="M4340 360 c-48 -47 -46 -112 5 -164 28 -29 42 -36 74 -36 31 0 44 6 61 27 25 32 12 55 -20 35 -11 -6 -31 -12 -45 -12 -30 0 -77 28 -69 41 3 5 41 9 85 9 89 0 102 10 78 58 -27 54 -51 72 -96 72 -34 0 -49 -6 -73 -30z m110 -25 c23 -28 4 -45 -50 -45 -54 0 -62 10 -33 42 20 22 66 24 83 3z"/> </g> </svg> 